<svg width="24" height="29" viewBox="0 0 24 29" fill="none" xmlns="http://www.w3.org/2000/svg">
<mask id="path-1-outside-1_236_574" maskUnits="userSpaceOnUse" x="-0.455078" y="-0.151489" width="24" height="24" fill="black">
<rect fill="white" x="-0.455078" y="-0.151489" width="24" height="24"/>
<path d="M18.3949 21.8235C18.2616 21.8235 18.1366 21.8027 18.0199 21.761C17.9033 21.7193 17.7949 21.6485 17.6949 21.5485L12.5949 16.4485C12.4949 16.3485 12.4241 16.2402 12.3824 16.1235C12.3408 16.0068 12.3199 15.8818 12.3199 15.7485C12.3199 15.6152 12.3408 15.4902 12.3824 15.3735C12.4241 15.2568 12.4949 15.1485 12.5949 15.0485L14.7199 12.9235C14.8199 12.8235 14.9283 12.7527 15.0449 12.711C15.1616 12.6693 15.2866 12.6485 15.4199 12.6485C15.5533 12.6485 15.6783 12.6693 15.7949 12.711C15.9116 12.7527 16.0199 12.8235 16.1199 12.9235L21.2199 18.0235C21.3199 18.1235 21.3908 18.2318 21.4324 18.3485C21.4741 18.4652 21.4949 18.5902 21.4949 18.7235C21.4949 18.8568 21.4741 18.9818 21.4324 19.0985C21.3908 19.2152 21.3199 19.3235 21.2199 19.4235L19.0949 21.5485C18.9949 21.6485 18.8866 21.7193 18.7699 21.761C18.6533 21.8027 18.5283 21.8235 18.3949 21.8235V21.8235M4.66992 21.8485C4.53659 21.8485 4.40742 21.8235 4.28242 21.7735C4.15742 21.7235 4.04492 21.6485 3.94492 21.5485L1.84492 19.4485C1.74492 19.3485 1.66992 19.236 1.61992 19.111C1.56992 18.986 1.54492 18.8568 1.54492 18.7235C1.54492 18.5902 1.56992 18.4652 1.61992 18.3485C1.66992 18.2318 1.74492 18.1235 1.84492 18.0235L7.14492 12.7235H9.26992L10.1199 11.8735L5.99492 7.74851H4.56992L1.54492 4.72351L4.36992 1.89851L7.39492 4.92351V6.34851L11.5199 10.4735L14.4199 7.57351L13.3449 6.49851L14.7449 5.09851H11.9199L11.2199 4.39851L14.7699 0.848511L15.4699 1.54851V4.37351L16.8699 2.97351L20.4199 6.52351C20.7033 6.80684 20.9199 7.12768 21.0699 7.48601C21.2199 7.84434 21.2949 8.22351 21.2949 8.62351C21.2949 9.02351 21.2199 9.40684 21.0699 9.77351C20.9199 10.1402 20.7033 10.4652 20.4199 10.7485L18.2949 8.62351L16.8949 10.0235L15.8449 8.97351L10.6699 14.1485V16.2485L5.36992 21.5485C5.26992 21.6485 5.16159 21.7235 5.04492 21.7735C4.92826 21.8235 4.80326 21.8485 4.66992 21.8485V21.8485"/>
</mask>
<path d="M18.3949 21.8235C18.2616 21.8235 18.1366 21.8027 18.0199 21.761C17.9033 21.7193 17.7949 21.6485 17.6949 21.5485L12.5949 16.4485C12.4949 16.3485 12.4241 16.2402 12.3824 16.1235C12.3408 16.0068 12.3199 15.8818 12.3199 15.7485C12.3199 15.6152 12.3408 15.4902 12.3824 15.3735C12.4241 15.2568 12.4949 15.1485 12.5949 15.0485L14.7199 12.9235C14.8199 12.8235 14.9283 12.7527 15.0449 12.711C15.1616 12.6693 15.2866 12.6485 15.4199 12.6485C15.5533 12.6485 15.6783 12.6693 15.7949 12.711C15.9116 12.7527 16.0199 12.8235 16.1199 12.9235L21.2199 18.0235C21.3199 18.1235 21.3908 18.2318 21.4324 18.3485C21.4741 18.4652 21.4949 18.5902 21.4949 18.7235C21.4949 18.8568 21.4741 18.9818 21.4324 19.0985C21.3908 19.2152 21.3199 19.3235 21.2199 19.4235L19.0949 21.5485C18.9949 21.6485 18.8866 21.7193 18.7699 21.761C18.6533 21.8027 18.5283 21.8235 18.3949 21.8235V21.8235M4.66992 21.8485C4.53659 21.8485 4.40742 21.8235 4.28242 21.7735C4.15742 21.7235 4.04492 21.6485 3.94492 21.5485L1.84492 19.4485C1.74492 19.3485 1.66992 19.236 1.61992 19.111C1.56992 18.986 1.54492 18.8568 1.54492 18.7235C1.54492 18.5902 1.56992 18.4652 1.61992 18.3485C1.66992 18.2318 1.74492 18.1235 1.84492 18.0235L7.14492 12.7235H9.26992L10.1199 11.8735L5.99492 7.74851H4.56992L1.54492 4.72351L4.36992 1.89851L7.39492 4.92351V6.34851L11.5199 10.4735L14.4199 7.57351L13.3449 6.49851L14.7449 5.09851H11.9199L11.2199 4.39851L14.7699 0.848511L15.4699 1.54851V4.37351L16.8699 2.97351L20.4199 6.52351C20.7033 6.80684 20.9199 7.12768 21.0699 7.48601C21.2199 7.84434 21.2949 8.22351 21.2949 8.62351C21.2949 9.02351 21.2199 9.40684 21.0699 9.77351C20.9199 10.1402 20.7033 10.4652 20.4199 10.7485L18.2949 8.62351L16.8949 10.0235L15.8449 8.97351L10.6699 14.1485V16.2485L5.36992 21.5485C5.26992 21.6485 5.16159 21.7235 5.04492 21.7735C4.92826 21.8235 4.80326 21.8485 4.66992 21.8485V21.8485" fill="url(#paint0_linear_236_574)"/>
<path d="M17.6949 21.5485L16.8464 22.397V22.397L17.6949 21.5485ZM12.5949 16.4485L13.4434 15.6V15.6L12.5949 16.4485ZM3.94492 21.5485L3.09639 22.397H3.09639L3.94492 21.5485ZM1.84492 19.4485L2.69345 18.6V18.6L1.84492 19.4485ZM1.84492 18.0235L0.996394 17.175V17.175L1.84492 18.0235ZM7.14492 12.7235V11.5235L6.29639 11.875L7.14492 12.7235ZM9.26992 12.7235V13.9235L10.1185 13.572L9.26992 12.7235ZM10.1199 11.8735L10.9685 12.722L10.9684 11.025L10.1199 11.8735ZM5.99492 7.74851L6.84345 6.89998L5.99492 6.54851V7.74851ZM4.56992 7.74851L3.72139 8.59704L4.56992 8.94851V7.74851ZM1.54492 4.72351L0.696394 3.87498V5.57204L1.54492 4.72351ZM4.36992 1.89851L5.21845 1.04998H3.52139L4.36992 1.89851ZM7.39492 4.92351H8.59492L8.24345 4.07498L7.39492 4.92351ZM7.39492 6.34851H6.19492L6.54639 7.19704L7.39492 6.34851ZM11.5199 10.4735L10.6714 11.322H12.3685L11.5199 10.4735ZM14.4199 7.57351L15.2684 8.42204V6.72498L14.4199 7.57351ZM13.3449 6.49851L12.4964 5.64998V7.34704L13.3449 6.49851ZM14.7449 5.09851L15.5934 5.94704L14.7449 3.89851V5.09851ZM11.9199 5.09851L11.0714 5.94704L11.9199 6.29851V5.09851ZM11.2199 4.39851L10.3714 3.54998V5.24704L11.2199 4.39851ZM14.7699 0.848511L15.6185 -1.7345e-05L13.9214 -1.74642e-05L14.7699 0.848511ZM15.4699 1.54851H16.6699L16.3184 0.699983L15.4699 1.54851ZM15.4699 4.37351H14.2699L16.3184 5.22204L15.4699 4.37351ZM16.8699 2.97351L17.7185 2.12498L16.0214 2.12498L16.8699 2.97351ZM20.4199 10.7485L19.5714 11.597H21.2684L20.4199 10.7485ZM18.2949 8.62351L19.1434 7.77498L17.4464 7.77498L18.2949 8.62351ZM16.8949 10.0235L16.0464 10.872H17.7435L16.8949 10.0235ZM15.8449 8.97351L16.6934 8.12498H14.9964L15.8449 8.97351ZM10.6699 14.1485L9.82139 13.3L9.46992 14.1485H10.6699ZM10.6699 16.2485L11.5184 17.097L11.8699 16.2485H10.6699ZM5.36992 21.5485L6.21845 22.397V22.397L5.36992 21.5485ZM18.3949 21.8235V20.6235C18.3909 20.6235 18.3925 20.6232 18.3985 20.6242C18.4046 20.6252 18.4133 20.6273 18.4235 20.6309L18.0199 21.761L17.6163 22.8911C17.8721 22.9824 18.1346 23.0235 18.3949 23.0235V21.8235ZM18.0199 21.761L18.4235 20.6309C18.4964 20.6569 18.5356 20.6922 18.5434 20.7L17.6949 21.5485L16.8464 22.397C17.0542 22.6049 17.3101 22.7818 17.6163 22.8911L18.0199 21.761ZM17.6949 21.5485L18.5434 20.7L13.4434 15.6L12.5949 16.4485L11.7464 17.297L16.8464 22.397L17.6949 21.5485ZM12.5949 16.4485L13.4434 15.6C13.4513 15.6078 13.4865 15.6471 13.5125 15.7199L12.3824 16.1235L11.2523 16.5271C11.3617 16.8333 11.5386 17.0892 11.7464 17.297L12.5949 16.4485ZM12.3824 16.1235L13.5125 15.7199C13.5162 15.7301 13.5182 15.7389 13.5192 15.745C13.5202 15.751 13.5199 15.7525 13.5199 15.7485H12.3199H11.1199C11.1199 16.0089 11.161 16.2714 11.2523 16.5271L12.3824 16.1235ZM12.3199 15.7485H13.5199C13.5199 15.7445 13.5202 15.7461 13.5192 15.752C13.5182 15.7582 13.5162 15.7669 13.5125 15.7771L12.3824 15.3735L11.2523 14.9699C11.161 15.2257 11.1199 15.4882 11.1199 15.7485H12.3199ZM12.3824 15.3735L13.5125 15.7771C13.4865 15.85 13.4513 15.8892 13.4434 15.897L12.5949 15.0485L11.7464 14.2C11.5386 14.4078 11.3617 14.6637 11.2523 14.9699L12.3824 15.3735ZM12.5949 15.0485L13.4434 15.897L15.5684 13.772L14.7199 12.9235L13.8714 12.075L11.7464 14.2L12.5949 15.0485ZM14.7199 12.9235L15.5684 13.772C15.5606 13.7799 15.5214 13.8151 15.4485 13.8411L15.0449 12.711L14.6413 11.5809C14.3351 11.6903 14.0792 11.8672 13.8714 12.075L14.7199 12.9235ZM15.0449 12.711L15.4485 13.8411C15.4383 13.8448 15.4296 13.8468 15.4235 13.8478C15.4175 13.8488 15.4159 13.8485 15.4199 13.8485V12.6485V11.4485C15.1596 11.4485 14.8971 11.4896 14.6413 11.5809L15.0449 12.711ZM15.4199 12.6485V13.8485C15.4239 13.8485 15.4224 13.8488 15.4164 13.8478C15.4103 13.8468 15.4016 13.8448 15.3913 13.8411L15.7949 12.711L16.1985 11.5809C15.9428 11.4896 15.6803 11.4485 15.4199 11.4485V12.6485ZM15.7949 12.711L15.3913 13.8411C15.3185 13.8151 15.2792 13.7799 15.2714 13.772L16.1199 12.9235L16.9684 12.075C16.7606 11.8672 16.5047 11.6903 16.1985 11.5809L15.7949 12.711ZM16.1199 12.9235L15.2714 13.772L20.3714 18.872L21.2199 18.0235L22.0684 17.175L16.9684 12.075L16.1199 12.9235ZM21.2199 18.0235L20.3714 18.872C20.3636 18.8642 20.3284 18.825 20.3023 18.7521L21.4324 18.3485L22.5625 17.9449C22.4532 17.6387 22.2763 17.3828 22.0684 17.175L21.2199 18.0235ZM21.4324 18.3485L20.3023 18.7521C20.2987 18.7419 20.2966 18.7332 20.2956 18.727C20.2946 18.7211 20.2949 18.7195 20.2949 18.7235H21.4949H22.6949C22.6949 18.4632 22.6539 18.2007 22.5625 17.9449L21.4324 18.3485ZM21.4949 18.7235H20.2949C20.2949 18.7275 20.2946 18.726 20.2956 18.72C20.2966 18.7139 20.2987 18.7051 20.3023 18.6949L21.4324 19.0985L22.5625 19.5021C22.6539 19.2464 22.6949 18.9839 22.6949 18.7235H21.4949ZM21.4324 19.0985L20.3023 18.6949C20.3284 18.622 20.3636 18.5828 20.3714 18.575L21.2199 19.4235L22.0684 20.272C22.2763 20.0642 22.4532 19.8083 22.5625 19.5021L21.4324 19.0985ZM21.2199 19.4235L20.3714 18.575L18.2464 20.7L19.0949 21.5485L19.9434 22.397L22.0684 20.272L21.2199 19.4235ZM19.0949 21.5485L18.2464 20.7C18.2542 20.6922 18.2935 20.6569 18.3663 20.6309L18.7699 21.761L19.1735 22.8911C19.4797 22.7817 19.7356 22.6049 19.9434 22.397L19.0949 21.5485ZM18.7699 21.761L18.3663 20.6309C18.3766 20.6273 18.3853 20.6252 18.3914 20.6242C18.3974 20.6232 18.3989 20.6235 18.3949 20.6235V21.8235V23.0235C18.6553 23.0235 18.9178 22.9824 19.1735 22.8911L18.7699 21.761ZM18.3949 21.8235M4.66992 21.8485V20.6485C4.67876 20.6485 4.68951 20.6494 4.70108 20.6516C4.71261 20.6539 4.72187 20.6568 4.72809 20.6593L4.28242 21.7735L3.83675 22.8877C4.10208 22.9938 4.38241 23.0485 4.66992 23.0485V21.8485ZM4.28242 21.7735L4.72809 20.6593C4.74305 20.6653 4.75736 20.6729 4.76993 20.6813C4.78238 20.6896 4.79013 20.6967 4.79345 20.7L3.94492 21.5485L3.09639 22.397C3.30541 22.6061 3.55331 22.7743 3.83675 22.8877L4.28242 21.7735ZM3.94492 21.5485L4.79345 20.7L2.69345 18.6L1.84492 19.4485L0.996394 20.297L3.09639 22.397L3.94492 21.5485ZM1.84492 19.4485L2.69345 18.6C2.69677 18.6033 2.70384 18.6111 2.71213 18.6235C2.72051 18.6361 2.72811 18.6504 2.73409 18.6653L1.61992 19.111L0.50575 19.5567C0.619132 19.8401 0.787386 20.088 0.996394 20.297L1.84492 19.4485ZM1.61992 19.111L2.73409 18.6653C2.73658 18.6716 2.73958 18.6808 2.74181 18.6924C2.74405 18.7039 2.74492 18.7147 2.74492 18.7235H1.54492H0.344922C0.344922 19.011 0.399617 19.2913 0.50575 19.5567L1.61992 19.111ZM1.54492 18.7235H2.74492C2.74492 18.7323 2.74406 18.7466 2.74037 18.7651C2.73665 18.7837 2.73076 18.8029 2.7229 18.8212L1.61992 18.3485L0.516948 17.8758C0.399722 18.1493 0.344922 18.436 0.344922 18.7235H1.54492ZM1.61992 18.3485L2.7229 18.8212C2.71507 18.8395 2.70679 18.8534 2.7003 18.8628C2.69396 18.872 2.69067 18.8748 2.69345 18.872L1.84492 18.0235L0.996394 17.175C0.800748 17.3706 0.633579 17.6037 0.516948 17.8758L1.61992 18.3485ZM1.84492 18.0235L2.69345 18.872L7.99345 13.572L7.14492 12.7235L6.29639 11.875L0.996394 17.175L1.84492 18.0235ZM7.14492 12.7235V13.9235H9.26992V12.7235V11.5235H7.14492V12.7235ZM9.26992 12.7235L10.1185 13.572L10.9685 12.722L10.1199 11.8735L9.27139 11.025L8.42139 11.875L9.26992 12.7235ZM10.1199 11.8735L10.9684 11.025L6.84345 6.89998L5.99492 7.74851L5.14639 8.59704L9.27139 12.722L10.1199 11.8735ZM5.99492 7.74851V6.54851H4.56992V7.74851V8.94851H5.99492V7.74851ZM4.56992 7.74851L5.41845 6.89998L2.39345 3.87498L1.54492 4.72351L0.696394 5.57204L3.72139 8.59704L4.56992 7.74851ZM1.54492 4.72351L2.39345 5.57204L5.21845 2.74704L4.36992 1.89851L3.52139 1.04998L0.696394 3.87498L1.54492 4.72351ZM4.36992 1.89851L3.52139 2.74704L6.54639 5.77204L7.39492 4.92351L8.24345 4.07498L5.21845 1.04998L4.36992 1.89851ZM7.39492 4.92351H6.19492V6.34851H7.39492H8.59492V4.92351H7.39492ZM7.39492 6.34851L6.54639 7.19704L10.6714 11.322L11.5199 10.4735L12.3685 9.62498L8.24345 5.49998L7.39492 6.34851ZM11.5199 10.4735L12.3685 11.322L15.2684 8.42204L14.4199 7.57351L13.5714 6.72498L10.6714 9.62498L11.5199 10.4735ZM14.4199 7.57351L15.2684 6.72498L14.1934 5.64998L13.3449 6.49851L12.4964 7.34704L13.5714 8.42204L14.4199 7.57351ZM13.3449 6.49851L14.1934 7.34704L15.5934 5.94704L14.7449 5.09851L13.8964 4.24998L12.4964 5.64998L13.3449 6.49851ZM14.7449 5.09851V3.89851H11.9199V5.09851V6.29851H14.7449V5.09851ZM11.9199 5.09851L12.7684 4.24998L12.0684 3.54998L11.2199 4.39851L10.3714 5.24704L11.0714 5.94704L11.9199 5.09851ZM11.2199 4.39851L12.0684 5.24704L15.6185 1.69704L14.7699 0.848511L13.9214 -1.74642e-05L10.3714 3.54998L11.2199 4.39851ZM14.7699 0.848511L13.9214 1.69704L14.6214 2.39704L15.4699 1.54851L16.3184 0.699983L15.6185 -1.7345e-05L14.7699 0.848511ZM15.4699 1.54851H14.2699V4.37351H15.4699H16.6699V1.54851H15.4699ZM15.4699 4.37351L16.3184 5.22204L17.7185 3.82204L16.8699 2.97351L16.0214 2.12498L14.6214 3.52498L15.4699 4.37351ZM16.8699 2.97351L16.0214 3.82204L19.5714 7.37204L20.4199 6.52351L21.2684 5.67498L17.7185 2.12498L16.8699 2.97351ZM20.4199 6.52351L19.5714 7.37204C19.7479 7.54856 19.8752 7.73957 19.963 7.94938L21.0699 7.48601L22.1769 7.02264C21.9647 6.51578 21.6586 6.06513 21.2684 5.67498L20.4199 6.52351ZM21.0699 7.48601L19.963 7.94938C20.0497 8.15656 20.0949 8.37778 20.0949 8.62351H21.2949H22.4949C22.4949 8.06924 22.3901 7.53213 22.1769 7.02264L21.0699 7.48601ZM21.2949 8.62351H20.0949C20.0949 8.86924 20.0497 9.09813 19.9593 9.31915L21.0699 9.77351L22.1806 10.2279C22.3902 9.71556 22.4949 9.17778 22.4949 8.62351H21.2949ZM21.0699 9.77351L19.9593 9.31915C19.8703 9.5366 19.7434 9.72801 19.5714 9.89998L20.4199 10.7485L21.2684 11.597C21.6631 11.2023 21.9695 10.7438 22.1806 10.2279L21.0699 9.77351ZM20.4199 10.7485L21.2684 9.89998L19.1434 7.77498L18.2949 8.62351L17.4464 9.47204L19.5714 11.597L20.4199 10.7485ZM18.2949 8.62351L17.4464 7.77498L16.0464 9.17498L16.8949 10.0235L17.7435 10.872L19.1434 9.47204L18.2949 8.62351ZM16.8949 10.0235L17.7435 9.17498L16.6934 8.12498L15.8449 8.97351L14.9964 9.82204L16.0464 10.872L16.8949 10.0235ZM15.8449 8.97351L14.9964 8.12498L9.82139 13.3L10.6699 14.1485L11.5184 14.997L16.6934 9.82204L15.8449 8.97351ZM10.6699 14.1485H9.46992V16.2485H10.6699H11.8699V14.1485H10.6699ZM10.6699 16.2485L9.82139 15.4L4.52139 20.7L5.36992 21.5485L6.21845 22.397L11.5184 17.097L10.6699 16.2485ZM5.36992 21.5485L4.52139 20.7C4.51861 20.7028 4.52146 20.6995 4.53062 20.6931C4.53999 20.6866 4.55397 20.6784 4.57222 20.6705L5.04492 21.7735L5.51763 22.8765C5.78976 22.7599 6.0228 22.5927 6.21845 22.397L5.36992 21.5485ZM5.04492 21.7735L4.57222 20.6705C4.59057 20.6627 4.60972 20.6568 4.62833 20.6531C4.64678 20.6494 4.66118 20.6485 4.66992 20.6485V21.8485V23.0485C4.95742 23.0485 5.2441 22.9937 5.51763 22.8765L5.04492 21.7735ZM4.66992 21.8485" fill="#442A22" mask="url(#path-1-outside-1_236_574)"/>
<mask id="path-3-outside-2_236_574" maskUnits="userSpaceOnUse" x="-0.330078" y="18.8485" width="23" height="10" fill="black">
<rect fill="white" x="-0.330078" y="18.8485" width="23" height="10"/>
<path d="M7.17992 25.0285C7.05326 25.4552 6.85326 25.8118 6.57992 26.0985C6.30659 26.3852 5.98326 26.5985 5.60992 26.7385C5.23659 26.8785 4.82659 26.9485 4.37992 26.9485C3.72659 26.9485 3.15992 26.8118 2.67992 26.5385C2.20659 26.2652 1.83992 25.8752 1.57992 25.3685C1.32659 24.8618 1.19992 24.2552 1.19992 23.5485C1.19992 22.8418 1.32659 22.2352 1.57992 21.7285C1.83992 21.2218 2.20659 20.8318 2.67992 20.5585C3.15992 20.2852 3.71992 20.1485 4.35992 20.1485C4.81326 20.1485 5.22326 20.2118 5.58992 20.3385C5.95659 20.4585 6.26659 20.6452 6.51992 20.8985C6.77992 21.1518 6.96992 21.4718 7.08992 21.8585L5.83992 22.3885C5.72659 21.9885 5.55326 21.7052 5.31992 21.5385C5.08659 21.3652 4.78659 21.2785 4.41992 21.2785C4.05992 21.2785 3.74326 21.3652 3.46992 21.5385C3.20326 21.7118 2.99659 21.9685 2.84992 22.3085C2.70326 22.6418 2.62992 23.0552 2.62992 23.5485C2.62992 24.0352 2.69659 24.4485 2.82992 24.7885C2.96992 25.1285 3.17326 25.3852 3.43992 25.5585C3.70659 25.7318 4.03326 25.8185 4.41992 25.8185C4.77992 25.8185 5.08992 25.7218 5.34992 25.5285C5.61659 25.3352 5.80326 25.0418 5.90992 24.6485L7.17992 25.0285ZM10.7661 20.2485C11.5128 20.2485 12.0994 20.4285 12.5261 20.7885C12.9528 21.1485 13.1661 21.6318 13.1661 22.2385C13.1661 22.8852 12.9528 23.3818 12.5261 23.7285C12.0994 24.0685 11.5161 24.2385 10.7761 24.2385L10.6361 24.3185H9.21609V26.8485H7.85609V20.2485H10.7661ZM10.6061 23.2685C10.9928 23.2685 11.2794 23.1918 11.4661 23.0385C11.6594 22.8785 11.7561 22.6352 11.7561 22.3085C11.7561 21.9818 11.6594 21.7418 11.4661 21.5885C11.2794 21.4285 10.9928 21.3485 10.6061 21.3485H9.21609V23.2685H10.6061ZM11.4161 23.5585L13.5561 26.8485H12.0061L10.2361 23.9585L11.4161 23.5585ZM21.333 20.2485V26.8485H20.083V23.4085L20.153 21.4785H20.133L18.303 26.8485H17.173L15.353 21.4785H15.333L15.403 23.4085V26.8485H14.153V20.2485H16.153L17.343 23.8485L17.763 25.3385H17.783L18.213 23.8585L19.393 20.2485H21.333Z"/>
</mask>
<path d="M7.17992 25.0285C7.05326 25.4552 6.85326 25.8118 6.57992 26.0985C6.30659 26.3852 5.98326 26.5985 5.60992 26.7385C5.23659 26.8785 4.82659 26.9485 4.37992 26.9485C3.72659 26.9485 3.15992 26.8118 2.67992 26.5385C2.20659 26.2652 1.83992 25.8752 1.57992 25.3685C1.32659 24.8618 1.19992 24.2552 1.19992 23.5485C1.19992 22.8418 1.32659 22.2352 1.57992 21.7285C1.83992 21.2218 2.20659 20.8318 2.67992 20.5585C3.15992 20.2852 3.71992 20.1485 4.35992 20.1485C4.81326 20.1485 5.22326 20.2118 5.58992 20.3385C5.95659 20.4585 6.26659 20.6452 6.51992 20.8985C6.77992 21.1518 6.96992 21.4718 7.08992 21.8585L5.83992 22.3885C5.72659 21.9885 5.55326 21.7052 5.31992 21.5385C5.08659 21.3652 4.78659 21.2785 4.41992 21.2785C4.05992 21.2785 3.74326 21.3652 3.46992 21.5385C3.20326 21.7118 2.99659 21.9685 2.84992 22.3085C2.70326 22.6418 2.62992 23.0552 2.62992 23.5485C2.62992 24.0352 2.69659 24.4485 2.82992 24.7885C2.96992 25.1285 3.17326 25.3852 3.43992 25.5585C3.70659 25.7318 4.03326 25.8185 4.41992 25.8185C4.77992 25.8185 5.08992 25.7218 5.34992 25.5285C5.61659 25.3352 5.80326 25.0418 5.90992 24.6485L7.17992 25.0285ZM10.7661 20.2485C11.5128 20.2485 12.0994 20.4285 12.5261 20.7885C12.9528 21.1485 13.1661 21.6318 13.1661 22.2385C13.1661 22.8852 12.9528 23.3818 12.5261 23.7285C12.0994 24.0685 11.5161 24.2385 10.7761 24.2385L10.6361 24.3185H9.21609V26.8485H7.85609V20.2485H10.7661ZM10.6061 23.2685C10.9928 23.2685 11.2794 23.1918 11.4661 23.0385C11.6594 22.8785 11.7561 22.6352 11.7561 22.3085C11.7561 21.9818 11.6594 21.7418 11.4661 21.5885C11.2794 21.4285 10.9928 21.3485 10.6061 21.3485H9.21609V23.2685H10.6061ZM11.4161 23.5585L13.5561 26.8485H12.0061L10.2361 23.9585L11.4161 23.5585ZM21.333 20.2485V26.8485H20.083V23.4085L20.153 21.4785H20.133L18.303 26.8485H17.173L15.353 21.4785H15.333L15.403 23.4085V26.8485H14.153V20.2485H16.153L17.343 23.8485L17.763 25.3385H17.783L18.213 23.8585L19.393 20.2485H21.333Z" fill="url(#paint1_linear_236_574)"/>
<path d="M7.17992 25.0285L8.3303 25.37L8.67108 24.2221L7.52391 23.8789L7.17992 25.0285ZM6.57992 26.0985L7.44841 26.9266V26.9266L6.57992 26.0985ZM5.60992 26.7385L5.18857 25.6149L5.60992 26.7385ZM2.67992 26.5385L2.07982 27.5777L2.08612 27.5813L2.67992 26.5385ZM1.57992 25.3685L0.50655 25.9052L0.512287 25.9164L1.57992 25.3685ZM1.57992 21.7285L0.512229 21.1806L0.506609 21.1919L1.57992 21.7285ZM2.67992 20.5585L2.0861 19.5157L2.07983 19.5193L2.67992 20.5585ZM5.58992 20.3385L5.1981 21.4727L5.20736 21.4759L5.21668 21.479L5.58992 20.3385ZM6.51992 20.8985L5.67139 21.747L5.6769 21.7525L5.68248 21.758L6.51992 20.8985ZM7.08992 21.8585L7.55835 22.9633L8.55774 22.5396L8.236 21.5028L7.08992 21.8585ZM5.83992 22.3885L4.68537 22.7156L5.05614 24.0242L6.30835 23.4933L5.83992 22.3885ZM5.31992 21.5385L4.60433 22.5018L4.61332 22.5085L4.62244 22.515L5.31992 21.5385ZM3.46992 21.5385L2.82723 20.525L2.81594 20.5324L3.46992 21.5385ZM2.84992 22.3085L3.94833 22.7918L3.95178 22.7838L2.84992 22.3085ZM2.82992 24.7885L1.71275 25.2266L1.71645 25.236L1.72031 25.2454L2.82992 24.7885ZM3.43992 25.5585L4.09391 24.5524V24.5524L3.43992 25.5585ZM5.34992 25.5285L4.64556 24.557L4.63969 24.5612L4.63388 24.5656L5.34992 25.5285ZM5.90992 24.6485L6.25391 23.4989L5.07408 23.1459L4.75175 24.3344L5.90992 24.6485ZM7.17992 25.0285L6.02955 24.687C5.95021 24.9542 5.83812 25.1376 5.71144 25.2704L6.57992 26.0985L7.44841 26.9266C7.86839 26.4861 8.1563 25.9561 8.3303 25.37L7.17992 25.0285ZM6.57992 26.0985L5.71144 25.2704C5.56382 25.4252 5.39366 25.538 5.18857 25.6149L5.60992 26.7385L6.03127 27.8621C6.57286 27.659 7.04936 27.3451 7.44841 26.9266L6.57992 26.0985ZM5.60992 26.7385L5.18857 25.6149C4.96519 25.6987 4.69989 25.7485 4.37992 25.7485V26.9485V28.1485C4.95329 28.1485 5.50799 28.0583 6.03127 27.8621L5.60992 26.7385ZM4.37992 26.9485V25.7485C3.89659 25.7485 3.54224 25.6486 3.27373 25.4957L2.67992 26.5385L2.08612 27.5813C2.7776 27.9751 3.55659 28.1485 4.37992 28.1485V26.9485ZM2.67992 26.5385L3.28001 25.4993C3.01517 25.3464 2.80684 25.1311 2.64756 24.8206L1.57992 25.3685L0.512287 25.9164C0.873 26.6193 1.39801 27.184 2.07983 27.5777L2.67992 26.5385ZM1.57992 25.3685L2.65323 24.8319C2.50127 24.5279 2.39992 24.114 2.39992 23.5485H1.19992H-7.81417e-05C-7.81417e-05 24.3964 0.151909 25.1958 0.506609 25.9052L1.57992 25.3685ZM1.19992 23.5485H2.39992C2.39992 22.9831 2.50127 22.5691 2.65323 22.2652L1.57992 21.7285L0.506609 21.1919C0.151909 21.9013 -7.81417e-05 22.7006 -7.81417e-05 23.5485H1.19992ZM1.57992 21.7285L2.64756 22.2764C2.80684 21.966 3.01517 21.7506 3.28001 21.5977L2.67992 20.5585L2.07983 19.5193C1.39801 19.9131 0.873 20.4777 0.512287 21.1806L1.57992 21.7285ZM2.67992 20.5585L3.27373 21.6013C3.54583 21.4463 3.89476 21.3485 4.35992 21.3485V20.1485V18.9485C3.54508 18.9485 2.77401 19.124 2.08612 19.5157L2.67992 20.5585ZM4.35992 20.1485V21.3485C4.70189 21.3485 4.97671 21.3963 5.1981 21.4727L5.58992 20.3385L5.98175 19.2043C5.4698 19.0274 4.92462 18.9485 4.35992 18.9485V20.1485ZM5.58992 20.3385L5.21668 21.479C5.41826 21.545 5.56145 21.6371 5.67139 21.747L6.51992 20.8985L7.36845 20.05C6.97172 19.6533 6.49491 19.3721 5.96317 19.198L5.58992 20.3385ZM6.51992 20.8985L5.68248 21.758C5.78331 21.8562 5.87617 21.9961 5.94385 22.2142L7.08992 21.8585L8.236 21.5028C8.06367 20.9476 7.77654 20.4475 7.35736 20.039L6.51992 20.8985ZM7.08992 21.8585L6.62149 20.7537L5.37149 21.2837L5.83992 22.3885L6.30835 23.4933L7.55835 22.9633L7.08992 21.8585ZM5.83992 22.3885L6.99447 22.0614C6.83931 21.5138 6.55289 20.9445 6.01741 20.562L5.31992 21.5385L4.62244 22.515C4.58886 22.491 4.58553 22.4765 4.60128 22.5022C4.61868 22.5307 4.65138 22.5957 4.68537 22.7156L5.83992 22.3885ZM5.31992 21.5385L6.03551 20.5752C5.54655 20.212 4.97623 20.0785 4.41992 20.0785V21.2785V22.4785C4.50964 22.4785 4.56203 22.4892 4.58687 22.4964C4.60935 22.5029 4.61112 22.5068 4.60433 22.5018L5.31992 21.5385ZM4.41992 21.2785V20.0785C3.85874 20.0785 3.31393 20.2165 2.82727 20.5251L3.46992 21.5385L4.11257 22.5519C4.17258 22.5139 4.2611 22.4785 4.41992 22.4785V21.2785ZM3.46992 21.5385L2.81594 20.5324C2.32 20.8547 1.97268 21.3125 1.74807 21.8332L2.84992 22.3085L3.95178 22.7838C4.0205 22.6245 4.08651 22.5689 4.12391 22.5446L3.46992 21.5385ZM2.84992 22.3085L1.75154 21.8252C1.51859 22.3547 1.42992 22.9444 1.42992 23.5485H2.62992H3.82992C3.82992 23.1659 3.88792 22.929 3.9483 22.7918L2.84992 22.3085ZM2.62992 23.5485H1.42992C1.42992 24.1381 1.50981 24.7091 1.71275 25.2266L2.82992 24.7885L3.94709 24.3504C3.88337 24.1879 3.82992 23.9323 3.82992 23.5485H2.62992ZM2.82992 24.7885L1.72031 25.2454C1.93807 25.7743 2.28469 26.2388 2.78594 26.5646L3.43992 25.5585L4.09391 24.5524C4.06182 24.5315 4.00177 24.4828 3.93954 24.3316L2.82992 24.7885ZM3.43992 25.5585L2.78594 26.5646C3.28566 26.8895 3.85159 27.0185 4.41992 27.0185V25.8185V24.6185C4.21492 24.6185 4.12752 24.5742 4.09391 24.5524L3.43992 25.5585ZM4.41992 25.8185V27.0185C5.00775 27.0185 5.57603 26.8558 6.06597 26.4915L5.34992 25.5285L4.63388 24.5656C4.60382 24.5879 4.5521 24.6185 4.41992 24.6185V25.8185ZM5.34992 25.5285L6.05428 26.5C6.59154 26.1105 6.90718 25.556 7.06809 24.9626L5.90992 24.6485L4.75175 24.3344C4.72478 24.4339 4.69584 24.4905 4.67753 24.5193C4.66077 24.5456 4.64981 24.5539 4.64556 24.557L5.34992 25.5285ZM5.90992 24.6485L5.56594 25.7982L6.83594 26.1782L7.17992 25.0285L7.52391 23.8789L6.25391 23.4989L5.90992 24.6485ZM12.5261 20.7885L11.7522 21.7057V21.7057L12.5261 20.7885ZM12.5261 23.7285L13.274 24.667L13.2828 24.6598L12.5261 23.7285ZM10.7761 24.2385V23.0385H10.4574L10.1807 23.1966L10.7761 24.2385ZM10.6361 24.3185V25.5185H10.9548L11.2315 25.3604L10.6361 24.3185ZM9.21609 24.3185V23.1185H8.01609V24.3185H9.21609ZM9.21609 26.8485V28.0485H10.4161V26.8485H9.21609ZM7.85609 26.8485H6.65609V28.0485H7.85609V26.8485ZM7.85609 20.2485V19.0485H6.65609V20.2485H7.85609ZM11.4661 23.0385L12.2278 23.9658L12.2312 23.963L11.4661 23.0385ZM11.4661 21.5885L10.6851 22.4996L10.7025 22.5145L10.7204 22.5287L11.4661 21.5885ZM9.21609 21.3485V20.1485H8.01609V21.3485H9.21609ZM9.21609 23.2685H8.01609V24.4685H9.21609V23.2685ZM11.4161 23.5585L12.422 22.9042L11.9137 22.1228L11.0308 22.422L11.4161 23.5585ZM13.5561 26.8485V28.0485H15.7682L14.562 26.1942L13.5561 26.8485ZM12.0061 26.8485L10.9828 27.4753L11.3339 28.0485H12.0061V26.8485ZM10.2361 23.9585L9.85085 22.822L8.42823 23.3043L9.21277 24.5853L10.2361 23.9585ZM10.7661 20.2485V21.4485C11.3258 21.4485 11.6057 21.582 11.7522 21.7057L12.5261 20.7885L13.2999 19.8714C12.5931 19.275 11.6997 19.0485 10.7661 19.0485V20.2485ZM12.5261 20.7885L11.7522 21.7057C11.8832 21.8161 11.9661 21.9506 11.9661 22.2385H13.1661H14.3661C14.3661 21.313 14.0223 20.4809 13.2999 19.8714L12.5261 20.7885ZM13.1661 22.2385H11.9661C11.9661 22.5949 11.8648 22.7197 11.7694 22.7972L12.5261 23.7285L13.2828 24.6598C14.0408 24.044 14.3661 23.1755 14.3661 22.2385H13.1661ZM12.5261 23.7285L11.7782 22.79C11.6288 22.9091 11.3407 23.0385 10.7761 23.0385V24.2385V25.4385C11.6915 25.4385 12.5701 25.2279 13.2739 24.667L12.5261 23.7285ZM10.7761 24.2385L10.1807 23.1966L10.0407 23.2766L10.6361 24.3185L11.2315 25.3604L11.3715 25.2804L10.7761 24.2385ZM10.6361 24.3185V23.1185H9.21609V24.3185V25.5185H10.6361V24.3185ZM9.21609 24.3185H8.01609V26.8485H9.21609H10.4161V24.3185H9.21609ZM9.21609 26.8485V25.6485H7.85609V26.8485V28.0485H9.21609V26.8485ZM7.85609 26.8485H9.05609V20.2485H7.85609H6.65609V26.8485H7.85609ZM7.85609 20.2485V21.4485H10.7661V20.2485V19.0485H7.85609V20.2485ZM10.6061 23.2685V24.4685C11.1144 24.4685 11.7307 24.3741 12.2278 23.9658L11.4661 23.0385L10.7044 22.1112C10.77 22.0574 10.8159 22.0478 10.8011 22.0518C10.784 22.0563 10.7245 22.0685 10.6061 22.0685V23.2685ZM11.4661 23.0385L12.2312 23.963C12.7783 23.5102 12.9561 22.8768 12.9561 22.3085H11.7561H10.5561C10.5561 22.3564 10.5487 22.3425 10.5684 22.293C10.5911 22.2357 10.6355 22.1682 10.701 22.114L11.4661 23.0385ZM11.7561 22.3085H12.9561C12.9561 21.7432 12.7791 21.0983 12.2118 20.6483L11.4661 21.5885L10.7204 22.5287C10.646 22.4697 10.596 22.3951 10.5705 22.3318C10.5485 22.2773 10.5561 22.26 10.5561 22.3085H11.7561ZM11.4661 21.5885L12.247 20.6774C11.7484 20.25 11.1236 20.1485 10.6061 20.1485V21.3485V22.5485C10.6619 22.5485 10.7046 22.5514 10.7358 22.5551C10.767 22.5588 10.7837 22.563 10.7885 22.5643C10.798 22.567 10.7499 22.5551 10.6851 22.4996L11.4661 21.5885ZM10.6061 21.3485V20.1485H9.21609V21.3485V22.5485H10.6061V21.3485ZM9.21609 21.3485H8.01609V23.2685H9.21609H10.4161V21.3485H9.21609ZM9.21609 23.2685V24.4685H10.6061V23.2685V22.0685H9.21609V23.2685ZM11.4161 23.5585L10.4102 24.2128L12.5502 27.5028L13.5561 26.8485L14.562 26.1942L12.422 22.9042L11.4161 23.5585ZM13.5561 26.8485V25.6485H12.0061V26.8485V28.0485H13.5561V26.8485ZM12.0061 26.8485L13.0294 26.2218L11.2594 23.3318L10.2361 23.9585L9.21277 24.5853L10.9828 27.4753L12.0061 26.8485ZM10.2361 23.9585L10.6213 25.095L11.8013 24.695L11.4161 23.5585L11.0308 22.422L9.85085 22.822L10.2361 23.9585ZM21.333 20.2485H22.533V19.0485H21.333V20.2485ZM21.333 26.8485V28.0485H22.533V26.8485H21.333ZM20.083 26.8485H18.883V28.0485H20.083V26.8485ZM20.083 23.4085L18.8838 23.365L18.883 23.3868V23.4085H20.083ZM20.153 21.4785L21.3522 21.522L21.3973 20.2785H20.153V21.4785ZM20.133 21.4785V20.2785H19.2741L18.9971 21.0914L20.133 21.4785ZM18.303 26.8485V28.0485H19.1618L19.4388 27.2356L18.303 26.8485ZM17.173 26.8485L16.0365 27.2337L16.3126 28.0485H17.173V26.8485ZM15.353 21.4785L16.4895 21.0933L16.2133 20.2785H15.353V21.4785ZM15.333 21.4785V20.2785H14.0887L14.1338 21.522L15.333 21.4785ZM15.403 23.4085H16.603V23.3868L16.6022 23.365L15.403 23.4085ZM15.403 26.8485V28.0485H16.603V26.8485H15.403ZM14.153 26.8485H12.953V28.0485H14.153V26.8485ZM14.153 20.2485V19.0485H12.953V20.2485H14.153ZM16.153 20.2485L17.2923 19.8719L17.0202 19.0485H16.153V20.2485ZM17.343 23.8485L18.498 23.5229L18.4907 23.4972L18.4823 23.4719L17.343 23.8485ZM17.763 25.3385L16.608 25.6641L16.8545 26.5385H17.763V25.3385ZM17.783 25.3385V26.5385H18.6839L18.9353 25.6733L17.783 25.3385ZM18.213 23.8585L17.0724 23.4857L17.0662 23.5046L17.0606 23.5237L18.213 23.8585ZM19.393 20.2485V19.0485H18.5227L18.2524 19.8757L19.393 20.2485ZM21.333 20.2485H20.133V26.8485H21.333H22.533V20.2485H21.333ZM21.333 26.8485V25.6485H20.083V26.8485V28.0485H21.333V26.8485ZM20.083 26.8485H21.283V23.4085H20.083H18.883V26.8485H20.083ZM20.083 23.4085L21.2822 23.452L21.3522 21.522L20.153 21.4785L18.9538 21.435L18.8838 23.365L20.083 23.4085ZM20.153 21.4785V20.2785H20.133V21.4785V22.6785H20.153V21.4785ZM20.133 21.4785L18.9971 21.0914L17.1671 26.4614L18.303 26.8485L19.4388 27.2356L21.2688 21.8656L20.133 21.4785ZM18.303 26.8485V25.6485H17.173V26.8485V28.0485H18.303V26.8485ZM17.173 26.8485L18.3095 26.4633L16.4895 21.0933L15.353 21.4785L14.2165 21.8637L16.0365 27.2337L17.173 26.8485ZM15.353 21.4785V20.2785H15.333V21.4785V22.6785H15.353V21.4785ZM15.333 21.4785L14.1338 21.522L14.2038 23.452L15.403 23.4085L16.6022 23.365L16.5322 21.435L15.333 21.4785ZM15.403 23.4085H14.203V26.8485H15.403H16.603V23.4085H15.403ZM15.403 26.8485V25.6485H14.153V26.8485V28.0485H15.403V26.8485ZM14.153 26.8485H15.353V20.2485H14.153H12.953V26.8485H14.153ZM14.153 20.2485V21.4485H16.153V20.2485V19.0485H14.153V20.2485ZM16.153 20.2485L15.0136 20.6251L16.2036 24.2251L17.343 23.8485L18.4823 23.4719L17.2923 19.8719L16.153 20.2485ZM17.343 23.8485L16.188 24.1741L16.608 25.6641L17.763 25.3385L18.918 25.0129L18.498 23.5229L17.343 23.8485ZM17.763 25.3385V26.5385H17.783V25.3385V24.1385H17.763V25.3385ZM17.783 25.3385L18.9353 25.6733L19.3653 24.1933L18.213 23.8585L17.0606 23.5237L16.6306 25.0037L17.783 25.3385ZM18.213 23.8585L19.3536 24.2313L20.5336 20.6213L19.393 20.2485L18.2524 19.8757L17.0724 23.4857L18.213 23.8585ZM19.393 20.2485V21.4485H21.333V20.2485V19.0485H19.393V20.2485Z" fill="#442A22" mask="url(#path-3-outside-2_236_574)"/>
<defs>
<linearGradient id="paint0_linear_236_574" x1="11.5199" y1="0.848511" x2="11.5199" y2="21.8485" gradientUnits="userSpaceOnUse">
<stop stop-color="white"/>
<stop offset="1" stop-color="#999999"/>
</linearGradient>
<linearGradient id="paint1_linear_236_574" x1="12.1699" y1="18.8485" x2="12.1699" y2="27.8485" gradientUnits="userSpaceOnUse">
<stop stop-color="white"/>
<stop offset="1" stop-color="#999999"/>
</linearGradient>
</defs>
</svg>
